<?xml version="1.0" encoding="UTF-8"?>
<svg id="Layer_2" data-name="Layer 2" xmlns="http://www.w3.org/2000/svg" viewBox="0 0 316.24 62.85">
  <defs>
    <style>
      .cls-1 {
        fill: #fff;
      }

      .cls-2, .cls-3 {
        fill: none;
        stroke: #fff;
        stroke-miterlimit: 10;
        stroke-width: .58px;
      }

      .cls-3 {
        stroke-dasharray: 2.72 2.72;
      }
    </style>
  </defs>
  <g id="Layer_1-2" data-name="Layer 1">
    <g>
      <g id="RMIT">
        <g id="Layer_4" data-name="Layer 4">
          <g>
            <path class="cls-1" d="M15.94,6.75h-4.06v3.3h-6.78v6.89H0v10.13h5.09v6.89h6.77v3.3h3.59c8.38,0,15.77-6.77,15.77-15.22s-6.88-15.3-15.29-15.3"/>
            <g>
              <polygon class="cls-1" points="106.29 9.66 109.81 9.66 109.81 8.37 97.55 8.37 97.55 9.66 101.09 9.66 101.09 34.34 97.55 34.34 97.55 35.62 109.81 35.62 109.81 34.34 106.29 34.34 106.29 9.66"/>
              <path class="cls-1" d="M128.62,35.62v-1.28h-3.76V9.39c5.74-.29,6.73.94,7.46,6.16h1.26l-.44-7.18h-21.82l-.44,7.18h1.29c.75-5.22,1.71-6.45,7.46-6.16v24.95h-3.76v1.28h12.75"/>
              <path class="cls-1" d="M46.37,20.05v-10.4h3.55c3.63,0,4.98.92,4.98,5.49,0,3.65-1.51,4.9-5.17,4.9h-3.34M95.22,9.64v-1.29h-10.06l-5.91,18.64-5.7-18.64h-10.01v1.29h3.52v24.69h-3.8c-3.54.08-3.59-2.93-3.58-3.55.06-6.64-1.44-9.06-7.81-10.04v-.08c3.8-.4,8.66-1.48,8.66-6.09,0-5.67-5.28-6.2-9.75-6.2h-13.14v1.29h3.52v24.69h-3.52v1.29h12.26v-1.29h-3.52v-13.01c2.26-.08,4.81.49,5.95,1.47,1.07.9,1.64,3.7,1.64,7.07,0,4.16,2.15,5.74,6.28,5.74h11.82v-1.28h-3.44V10.08h.08l8.11,25.55h1.37l8.17-25.55h.12v24.26h-3.51v1.28h12.25v-1.28h-3.51V9.65h3.51-.01Z"/>
            </g>
            <g>
              <path class="cls-1" d="M41.15,43.87c0-.22-.12-.33-.33-.33h-.65v-1.3h1.53c.68,0,.97.29.97.97v5.92c0,1.61,1.01,2.55,2.55,2.55s2.55-.96,2.55-2.58v-5.89c0-.68.31-.97.98-.97h1.51v1.3h-.65c-.21,0-.33.11-.33.33v5.31c0,2.33-1.62,3.93-4.05,3.93s-4.09-1.6-4.09-3.93v-5.31h.01Z"/>
              <path class="cls-1" d="M51.31,51.61h.65c.21,0,.33-.12.33-.33v-9.04h1.37l4.76,6.77c.39.57.89,1.46.89,1.46h.03s-.11-.85-.11-1.46v-5.8c0-.68.29-.97.98-.97h1.51v1.3h-.65c-.21,0-.33.11-.33.33v9.04h-1.36l-4.77-6.77c-.39-.57-.87-1.46-.87-1.46h-.03s.1.86.1,1.46v5.8c0,.68-.29.97-.97.97h-1.53v-1.3Z"/>
              <polygon class="cls-1" points="63.37 51.61 64.41 51.61 64.41 43.54 63.37 43.54 63.37 42.23 66.9 42.23 66.9 43.54 65.86 43.54 65.86 51.61 66.9 51.61 66.9 52.91 63.37 52.91 63.37 51.61"/>
              <path class="cls-1" d="M68.55,43.87c-.1-.28-.24-.33-.5-.33h-.21v-1.3h.85c.75,0,1.01.17,1.26.87l2.34,6.59c.19.57.4,1.47.4,1.47h.03s.19-.89.4-1.47l2.34-6.59c.25-.71.5-.87,1.25-.87h.85v1.3h-.21c-.28,0-.4.06-.5.33l-3.36,9.04h-1.61l-3.36-9.04h.01Z"/>
              <path class="cls-1" d="M79.44,43.54h-.98v-1.3h6.28c.68,0,.97.29.97.97v1.35h-1.37v-.68c0-.22-.12-.33-.33-.33h-3.04v3.34h3.73v1.3h-3.73v3.11c0,.21.12.33.33.33h3.12c.21,0,.33-.12.33-.33v-.68h1.39v1.35c0,.68-.29.97-.97.97h-4.76c-.68,0-.97-.29-.97-.97v-8.42Z"/>
              <path class="cls-1" d="M88.26,43.54h-.98v-1.3h4.66c1.87,0,3.19,1.18,3.19,3.13,0,1.79-1.17,2.66-1.93,2.83v.03s.28.14.46.49l1.29,2.55c.15.32.39.35.76.35h.19v1.3h-.75c-.83,0-1.14-.11-1.48-.8l-1.46-2.87c-.28-.5-.47-.58-1.05-.58h-1.39v4.26h-1.51v-9.38ZM91.74,47.36c1.15,0,1.83-.75,1.83-1.94s-.68-1.89-1.8-1.89h-2v3.83h1.97Z"/>
              <path class="cls-1" d="M97.83,50.43s1.1,1.29,2.68,1.29c1,0,1.83-.61,1.83-1.6,0-2.23-5.16-1.89-5.16-5.22,0-1.61,1.4-2.86,3.43-2.86,1.14,0,3.04.51,3.04,1.97v.87h-1.39v-.5c0-.55-.8-.97-1.65-.97-1.15,0-1.87.64-1.87,1.44,0,2.16,5.15,1.68,5.15,5.19,0,1.64-1.28,3.04-3.38,3.04-2.27,0-3.54-1.6-3.54-1.6l.89-1.07h-.01Z"/>
              <polygon class="cls-1" points="105.46 51.61 106.5 51.61 106.5 43.54 105.46 43.54 105.46 42.23 108.98 42.23 108.98 43.54 107.94 43.54 107.94 51.61 108.98 51.61 108.98 52.91 105.46 52.91 105.46 51.61"/>
              <path class="cls-1" d="M113.79,43.54h-2.15c-.21,0-.33.11-.33.33v.68h-1.35v-1.4c0-.68.22-.9.9-.9h7.35c.68,0,.9.22.9.9v1.4h-1.35v-.68c0-.22-.12-.33-.33-.33h-2.15v9.38h-1.51v-9.38h.01Z"/>
              <path class="cls-1" d="M123.46,48.25l-2.7-4.34c-.19-.32-.33-.37-.65-.37h-.31v-1.3h.69c.72,0,1.01.11,1.44.82l1.62,2.69c.35.6.65,1.19.65,1.19h.03s.29-.61.65-1.19l1.61-2.69c.42-.71.72-.82,1.44-.82h.69v1.3h-.29c-.32,0-.47.06-.67.37l-2.69,4.34v4.66h-1.51v-4.66h-.01Z"/>
            </g>
          </g>
        </g>
      </g>
      <g>
        <path class="cls-1" d="M159.2,26.01V4.59h21.16c1.12,0,2.15.28,3.09.84.93.55,1.66,1.29,2.21,2.21.56.96.84,1.99.84,3.09v3.91c0,1.12-.28,2.15-.84,3.09-.55.93-1.29,1.66-2.21,2.21-.95.56-1.98.84-3.09.84h-16.72v5.23h-4.44ZM181.56,15.85c.33-.33.49-.73.49-1.21v-3.91c0-.47-.16-.87-.49-1.2-.33-.33-.73-.49-1.21-.49h-16.72v7.31h16.72c.48,0,.88-.16,1.21-.49Z"/>
        <path class="cls-1" d="M190.23,26.01V8.52h4.44v.97c.25-.41.53-.68.84-.82.22-.1.51-.15.87-.15h8.76v4.44h-8.76c-.48,0-.88.16-1.21.49s-.49.73-.49,1.2v11.37h-4.44Z"/>
        <path class="cls-1" d="M213.55,26.01c-1.12,0-2.15-.28-3.09-.84-.93-.55-1.66-1.28-2.21-2.21-.56-.95-.84-1.98-.84-3.09v-5.23c0-1.11.28-2.14.84-3.09.55-.93,1.29-1.66,2.21-2.2.95-.56,1.98-.84,3.09-.84h10.44c1.12,0,2.15.28,3.09.84.93.54,1.66,1.27,2.21,2.2.56.96.84,1.99.84,3.09v5.23c0,1.12-.28,2.15-.84,3.09-.55.93-1.29,1.66-2.21,2.21-.95.56-1.98.84-3.09.84h-10.44ZM225.21,21.08c.33-.33.49-.73.49-1.21v-5.23c0-.47-.16-.87-.49-1.2-.33-.33-.73-.49-1.21-.49h-10.44c-.48,0-.88.16-1.21.49-.33.33-.49.73-.49,1.2v5.23c0,.48.16.88.49,1.21.33.33.73.49,1.21.49h10.44c.48,0,.88-.16,1.21-.49Z"/>
        <path class="cls-1" d="M265.63,26.01v-11.37c0-.47-.16-.87-.49-1.2-.33-.33-.73-.49-1.21-.49h-7.83c-.48,0-.88.16-1.21.49s-.49.73-.49,1.2v11.37h-4.44v-11.37c0-.47-.16-.87-.49-1.2-.33-.33-.73-.49-1.21-.49h-7.83c-.48,0-.88.16-1.2.48s-.5.73-.51,1.21v11.37h-4.44V8.52h4.44v1.02c.29-.47.57-.75.85-.85.3-.11.58-.16.85-.16h7.83c1.43,0,2.74.47,3.93,1.42,1.19-.95,2.49-1.42,3.92-1.42h7.83c1.15,0,2.18.27,3.09.82.93.56,1.67,1.3,2.23,2.23.55.92.82,1.94.82,3.08v11.37h-4.44Z"/>
        <path class="cls-1" d="M274.43,29.93V8.5h15.93c1.12,0,2.15.28,3.09.84.93.55,1.66,1.28,2.21,2.21.56.96.84,1.99.84,3.09v5.23c0,1.11-.28,2.14-.84,3.09-.55.93-1.28,1.66-2.21,2.21-.95.56-1.98.84-3.09.84h-9.79c-.55,0-1.12-.08-1.7-.24v4.15h-4.44ZM291.57,21.08c.33-.33.49-.73.49-1.21v-5.23c0-.47-.16-.87-.49-1.2-.33-.33-.73-.49-1.21-.49h-11.49v6.92c0,.49.16.89.49,1.21.32.33.72.49,1.21.49h9.79c.48,0,.88-.16,1.21-.49Z"/>
        <path class="cls-1" d="M306.54,26.01c-1.12,0-2.15-.28-3.09-.84-.93-.55-1.66-1.28-2.21-2.21-.56-.95-.84-1.98-.84-3.09V4.59h4.44v3.93h9.14v4.44h-9.14v6.92c0,.48.16.88.49,1.21.33.33.73.49,1.21.49h8.76v4.44h-8.76Z"/>
        <path class="cls-1" d="M164.28,55.83c-1.04,0-2-.25-2.88-.76-.87-.5-1.55-1.18-2.06-2.03-.52-.87-.78-1.81-.78-2.82v-.91h4.44v.91c0,.34.12.62.36.85.24.22.55.33.93.33h15.2c.38,0,.69-.11.93-.33.24-.23.36-.51.36-.85v-1.7c0-.34-.12-.62-.36-.84-.25-.22-.56-.33-.93-.33h-15.2c-1.04,0-2-.25-2.88-.76-.87-.5-1.55-1.18-2.06-2.03-.52-.87-.78-1.81-.78-2.82v-1.7c0-1.02.26-1.96.78-2.82.51-.86,1.2-1.53,2.06-2.03.89-.51,1.85-.76,2.88-.76h15.2c1.04,0,2,.25,2.88.76.87.5,1.55,1.18,2.06,2.03.52.87.78,1.81.78,2.82v.91h-4.44v-.91c0-.34-.12-.62-.36-.84-.25-.22-.56-.33-.93-.33h-15.2c-.37,0-.68.11-.93.33-.24.22-.36.5-.36.84v1.7c0,.34.12.62.36.85.24.22.55.33.93.33h15.2c1.04,0,2,.25,2.88.76.87.5,1.55,1.17,2.06,2.02.52.87.78,1.81.78,2.82v1.7c0,1.02-.26,1.96-.78,2.82-.51.86-1.2,1.53-2.06,2.03-.89.51-1.85.76-2.88.76h-15.2Z"/>
        <path class="cls-1" d="M199.81,55.83v-9.58l-13.24-11.85h6.68l8.77,7.9,8.79-7.9h6.66l-13.22,11.85v9.58h-4.44Z"/>
        <path class="cls-1" d="M244.04,55.83l-19.68-15.32v15.32h-4.44v-21.43h3.84l19.66,15.32v-15.32h4.45v21.43h-3.84Z"/>
        <path class="cls-1" d="M258.46,55.83c-1.12,0-2.15-.28-3.09-.84-.93-.55-1.66-1.28-2.21-2.21-.56-.95-.84-1.98-.84-3.09v-9.14c0-1.11.28-2.14.84-3.09.55-.93,1.28-1.66,2.21-2.21.95-.56,1.98-.84,3.09-.84h15.67c1.11,0,2.14.28,3.09.84.93.55,1.66,1.29,2.21,2.21.56.96.84,1.99.84,3.09v.91h-4.45v-.91c0-.47-.16-.87-.48-1.2-.33-.33-.73-.49-1.21-.49h-15.67c-.48,0-.88.16-1.21.49s-.49.73-.49,1.2v9.14c0,.48.16.88.49,1.21.33.33.73.49,1.21.49h15.67c.48,0,.88-.16,1.21-.49.32-.33.48-.73.48-1.21v-.91h4.45v.91c0,1.12-.28,2.15-.84,3.09-.55.93-1.29,1.66-2.21,2.21-.96.56-1.99.84-3.09.84h-15.67Z"/>
      </g>
      <g>
        <line class="cls-2" x1="145.92" y1="1.39" x2="145.92" y2="2.72"/>
        <line class="cls-3" x1="145.92" y1="5.44" x2="145.92" y2="58.4"/>
        <line class="cls-2" x1="145.92" y1="59.76" x2="145.92" y2="61.1"/>
      </g>
    </g>
  </g>
</svg>